<svg width="66" height="67" viewBox="0 0 66 67" fill="none" xmlns="http://www.w3.org/2000/svg">
<g filter="url(#filter0_d_31045_8692)">
<path d="M33 10.2501C37.4286 10.2501 41.3335 11.8089 44.6836 14.8986C48.0768 18.0281 49.75 22.224 49.75 27.4005C49.7499 28.9984 49.439 30.6581 48.832 32.3751C48.2271 34.086 47.351 35.8522 46.2109 37.673C45.0692 39.4963 43.6519 41.3706 41.9638 43.295C40.2773 45.2177 38.3419 47.1864 36.1591 49.2013L36.1543 49.2052C35.7144 49.6051 35.2121 49.9066 34.6523 50.1066C34.1097 50.3003 33.5578 50.4005 33 50.4005C32.4421 50.4005 31.8902 50.3003 31.3476 50.1066C30.7878 49.9066 30.2856 49.6051 29.8457 49.2052L29.8408 49.2013C27.658 47.1864 25.7226 45.2177 24.0361 43.295C22.348 41.3706 20.9308 39.4963 19.789 37.673C18.6489 35.8522 17.7728 34.086 17.1679 32.3751C16.5609 30.6581 16.25 28.9984 16.25 27.4005C16.25 22.224 17.9231 18.0281 21.3164 14.8986C24.6664 11.8089 28.5713 10.2501 33 10.2501Z" fill="#567F17" stroke="white" stroke-width="1.5"/>
<path d="M35.625 36.2501H39.5625C40.0266 36.2501 40.4238 36.0849 40.7543 35.7544C41.0848 35.424 41.25 35.0267 41.25 34.5626V30.6251C40.625 30.5939 40.0938 30.3634 39.6563 29.9337C39.2188 29.504 39 28.9845 39 28.3751C39 27.7657 39.2188 27.2462 39.6563 26.8165C40.0938 26.3868 40.625 26.1564 41.25 26.1251V22.1876C41.25 21.7236 41.0848 21.3263 40.7543 20.9958C40.4238 20.6654 40.0266 20.5001 39.5625 20.5001H35.625C35.625 19.8751 35.408 19.3439 34.9741 18.9064C34.5401 18.4689 34.0088 18.2501 33.3804 18.2501C32.7518 18.2501 32.2188 18.4676 31.7813 18.9026C31.3438 19.3376 31.125 19.8701 31.125 20.5001H27.1875C26.7234 20.5001 26.3262 20.6654 25.9957 20.9958C25.6652 21.3263 25.5 21.7236 25.5 22.1876V26.1251C24.875 26.1251 24.3438 26.3421 23.9063 26.776C23.4688 27.21 23.25 27.7413 23.25 28.3697C23.25 28.9983 23.4675 29.5314 23.9025 29.9689C24.3375 30.4064 24.87 30.6251 25.5 30.6251V34.5626C25.5 35.0267 25.6652 35.424 25.9957 35.7544C26.3262 36.0849 26.7234 36.2501 27.1875 36.2501H31.125C31.1563 35.6251 31.3858 35.0939 31.8136 34.6564C32.2414 34.2189 32.7609 34.0001 33.3722 34.0001C33.9834 34.0001 34.5039 34.2189 34.9336 34.6564C35.3633 35.0939 35.5938 35.6251 35.625 36.2501Z" fill="white"/>
</g>
<defs>
<filter id="filter0_d_31045_8692" x="-6" y="-2" width="78" height="78" filterUnits="userSpaceOnUse" color-interpolation-filters="sRGB">
<feFlood flood-opacity="0" result="BackgroundImageFix"/>
<feColorMatrix in="SourceAlpha" type="matrix" values="0 0 0 0 0 0 0 0 0 0 0 0 0 0 0 0 0 0 127 0" result="hardAlpha"/>
<feOffset dy="6"/>
<feGaussianBlur stdDeviation="7.5"/>
<feColorMatrix type="matrix" values="0 0 0 0 0 0 0 0 0 0 0 0 0 0 0 0 0 0 0.2 0"/>
<feBlend mode="normal" in2="BackgroundImageFix" result="effect1_dropShadow_31045_8692"/>
<feBlend mode="normal" in="SourceGraphic" in2="effect1_dropShadow_31045_8692" result="shape"/>
</filter>
</defs>
</svg>
