<svg width="44" height="49" viewBox="0 0 44 49" fill="none" xmlns="http://www.w3.org/2000/svg">
<g filter="url(#filter0_d_31040_266)">
<path d="M22.0003 7.16675C24.9526 7.16682 27.5561 8.20569 29.7894 10.2654C32.0515 12.3517 33.1663 15.1493 33.1663 18.6003C33.1663 19.6656 32.9597 20.7721 32.555 21.9167C32.1517 23.0574 31.5671 24.2351 30.8069 25.449C30.0459 26.6644 29.1011 27.9133 27.9759 29.196C26.8515 30.4779 25.5611 31.7912 24.1058 33.1345L24.1028 33.1365C23.8096 33.4031 23.4751 33.6047 23.1019 33.738C22.7403 33.8672 22.3721 33.9333 22.0003 33.9333C21.6285 33.9333 21.2603 33.8671 20.8987 33.738C20.5255 33.6047 20.1901 33.4031 19.8968 33.1365L19.8939 33.1345C18.4386 31.7912 17.1481 30.4779 16.0237 29.196C14.8985 27.9133 13.9538 26.6644 13.1927 25.449C12.4326 24.2351 11.8489 23.0574 11.4456 21.9167C11.0409 20.7721 10.8333 19.6656 10.8333 18.6003C10.8333 15.1493 11.9491 12.3517 14.2112 10.2654C16.4445 8.20583 19.048 7.16675 22.0003 7.16675Z" fill="#8FD327" stroke="white"/>
<path d="M23.75 24.5001H26.375C26.6844 24.5001 26.9492 24.39 27.1695 24.1697C27.3898 23.9493 27.5 23.6845 27.5 23.3751V20.7501C27.0833 20.7293 26.7292 20.5756 26.4375 20.2892C26.1458 20.0027 26 19.6564 26 19.2501C26 18.8439 26.1458 18.4975 26.4375 18.2111C26.7292 17.9246 27.0833 17.771 27.5 17.7501V15.1251C27.5 14.8157 27.3898 14.5509 27.1695 14.3306C26.9492 14.1103 26.6844 14.0001 26.375 14.0001H23.75C23.75 13.5835 23.6054 13.2293 23.3161 12.9376C23.0267 12.646 22.6726 12.5001 22.2536 12.5001C21.8345 12.5001 21.4792 12.6451 21.1875 12.9351C20.8958 13.2251 20.75 13.5801 20.75 14.0001H18.125C17.8156 14.0001 17.5508 14.1103 17.3305 14.3306C17.1102 14.5509 17 14.8157 17 15.1251V17.7501C16.5833 17.7501 16.2292 17.8948 15.9375 18.184C15.6458 18.4734 15.5 18.8276 15.5 19.2465C15.5 19.6656 15.645 20.021 15.935 20.3126C16.225 20.6043 16.58 20.7501 17 20.7501V23.3751C17 23.6845 17.1102 23.9493 17.3305 24.1697C17.5508 24.39 17.8156 24.5001 18.125 24.5001H20.75C20.7708 24.0835 20.9239 23.7293 21.2091 23.4376C21.4943 23.146 21.8406 23.0001 22.2481 23.0001C22.6556 23.0001 23.0026 23.146 23.2891 23.4376C23.5755 23.7293 23.7292 24.0835 23.75 24.5001Z" fill="white"/>
</g>
<defs>
<filter id="filter0_d_31040_266" x="-4" y="-1" width="52" height="52" filterUnits="userSpaceOnUse" color-interpolation-filters="sRGB">
<feFlood flood-opacity="0" result="BackgroundImageFix"/>
<feColorMatrix in="SourceAlpha" type="matrix" values="0 0 0 0 0 0 0 0 0 0 0 0 0 0 0 0 0 0 127 0" result="hardAlpha"/>
<feOffset dy="4"/>
<feGaussianBlur stdDeviation="5"/>
<feColorMatrix type="matrix" values="0 0 0 0 0 0 0 0 0 0 0 0 0 0 0 0 0 0 0.2 0"/>
<feBlend mode="normal" in2="BackgroundImageFix" result="effect1_dropShadow_31040_266"/>
<feBlend mode="normal" in="SourceGraphic" in2="effect1_dropShadow_31040_266" result="shape"/>
</filter>
</defs>
</svg>
